  <svg
                    xmlns="http://www.w3.org/2000/svg"
                    width="24"
                    height="24"
                    fill="none"
                    viewBox="0 0 24 24"
                  >
                    <g clipPath="url(#clip0_246_4760)">
                      <path
                        fill="#000"
                        stroke="#fff"
                        strokeWidth="0.2"
                        d="M12.905 8.847h0a3 3 0 013-2.946l-3 2.946zm0 0l-.028 1.574m.028-1.574l-.028 1.574M4.758 7.81l.132.11c1.877 1.563 3.828 2.5 5.86 2.776 0 0 0 0 0 0l1.56.212L4.758 7.81zm0 0l-.03.169m.03-.17l-.03.17m0 0c-.302 1.67-.16 3.093.42 4.324.58 1.23 1.59 2.258 3.008 3.15h0M4.728 7.978l3.428 7.474m0 0l1.747 1.098.051-.082m-1.798-1.016l1.798 1.016m0 0l-.051.082a.5.5 0 01.028.828h0m.023-.91l-.023.91m0 0L8.339 18.54l-.224.163m1.816-1.326l-1.816 1.326m0 0l.277.017m-.277-.017l.277.017m0 0c.953.06 1.86.017 2.617-.133h0m-2.617.133l2.618-.133m0 0c2.379-.475 4.364-1.609 5.755-3.367m-5.755 3.367l5.755-3.367m-3.888-4.8a.499.499 0 01-.567.486l.567-.486zm3.888 4.8c1.39-1.758 2.18-4.133 2.18-7.079m-2.18 7.08l2.18-7.08m0 0c0-.145-.074-.357-.201-.585m.201.585l-.201-.585m0 0a3.244 3.244 0 00-.577-.737m.577.737l-.577-.737m0 0a3.222 3.222 0 00-2.262-.919l2.262.92zm2.33-1.282c.385-.054.831-.195 1.419-.527-.306 1.484-.484 2.157-1.152 3.072l-.019.027v.032c0 3.8-1.167 6.615-2.92 8.598-1.752 1.984-4.097 3.141-6.463 3.613-1.617.323-3.608.22-5.366-.142a12.953 12.953 0 01-2.376-.714c-.583-.245-1.06-.52-1.39-.807a16.054 16.054 0 002.014-.33c1-.233 2.128-.61 2.96-1.219l.115-.085-.12-.08a23.073 23.073 0 00-.136-.088c-.758-.494-2.317-1.51-3.331-3.371-1.065-1.953-1.54-4.854.182-9.091 1.665 1.917 3.359 3.234 5.081 3.94h0c.582.24.948.358 1.237.425.219.052.394.074.58.097l.18.023.295.04-.181-.18a4.8 4.8 0 018.213-3.244l.03.03h.042c.102-.001.206.002.313.006.244.008.503.017.794-.025z"
                      ></path>
                    </g>
                    <defs>
                      <clipPath id="clip0_246_4760">
                        <path fill="#fff" d="M0 0H24V24H0z"></path>
                      </clipPath>
                    </defs>
                  </svg>